<svg xmlns="http://www.w3.org/2000/svg" width="900" height="620" viewBox="0 0 900 620" role="img">
<style>
  svg { background: #faf7ef; color: #1f2933; font-family: ui-sans-serif, system-ui, sans-serif; }
  .title { font-size: 22px; font-weight: 700; fill: #1f2933; }
  .label { font-size: 15px; font-weight: 650; fill: #344054; }
  .tick { font-size: 12px; fill: #667085; }
  .plot-bg { fill: #fffdf8; stroke: #d0d5dd; }
  .grid { stroke: #e4e7ec; stroke-width: 1; }
  .axis { stroke: #475467; stroke-width: 1.4; }
  .line { fill: none; stroke: #0f766e; stroke-width: 2.5; stroke-linejoin: round; stroke-linecap: round; }
  .point { fill: #0f766e; stroke: #ffffff; stroke-width: 1.5; }
  .round-label { font-size: 11px; fill: #475467; }
</style>
<text x="450.0" y="34" text-anchor="middle" class="title">annualized_return by round</text>
<rect x="96" y="64" width="764" height="464" class="plot-bg"/>
<line x1="96.00" y1="64" x2="96.00" y2="528" class="grid"/>
<text x="96.00" y="556" text-anchor="middle" class="tick">0</text>
<line x1="287.00" y1="64" x2="287.00" y2="528" class="grid"/>
<text x="287.00" y="556" text-anchor="middle" class="tick">3</text>
<line x1="478.00" y1="64" x2="478.00" y2="528" class="grid"/>
<text x="478.00" y="556" text-anchor="middle" class="tick">6</text>
<line x1="669.00" y1="64" x2="669.00" y2="528" class="grid"/>
<text x="669.00" y="556" text-anchor="middle" class="tick">8</text>
<line x1="860.00" y1="64" x2="860.00" y2="528" class="grid"/>
<text x="860.00" y="556" text-anchor="middle" class="tick">11</text>
<line x1="96" y1="528.00" x2="860" y2="528.00" class="grid"/>
<text x="82" y="532.00" text-anchor="end" class="tick">10.1%</text>
<line x1="96" y1="412.00" x2="860" y2="412.00" class="grid"/>
<text x="82" y="416.00" text-anchor="end" class="tick">10.5%</text>
<line x1="96" y1="296.00" x2="860" y2="296.00" class="grid"/>
<text x="82" y="300.00" text-anchor="end" class="tick">11.0%</text>
<line x1="96" y1="180.00" x2="860" y2="180.00" class="grid"/>
<text x="82" y="184.00" text-anchor="end" class="tick">11.5%</text>
<line x1="96" y1="64.00" x2="860" y2="64.00" class="grid"/>
<text x="82" y="68.00" text-anchor="end" class="tick">12.0%</text>
<line x1="96" y1="528" x2="860" y2="528" class="axis"/>
<line x1="96" y1="64" x2="96" y2="528" class="axis"/>
<polyline points="148.69,102.67 221.87,161.62 295.05,239.65 368.23,320.30 441.41,403.54 514.59,355.26 587.77,340.06 660.95,452.95 734.13,489.33 807.31,441.22" class="line"/>
<text x="450.0" y="592" text-anchor="middle" class="label">round</text>
<text transform="translate(28 296.0) rotate(-90)" text-anchor="middle" class="label">annualized_return</text>
<circle cx="148.69" cy="102.67" r="5.5" class="point"><title>round 0001
round: 1
annualized_return: 11.8%</title></circle>
<text x="156.69" y="94.67" class="round-label">0001</text>
<circle cx="221.87" cy="161.62" r="5.5" class="point"><title>round 0002
round: 2
annualized_return: 11.6%</title></circle>
<text x="229.87" y="153.62" class="round-label">0002</text>
<circle cx="295.05" cy="239.65" r="5.5" class="point"><title>round 0003
round: 3
annualized_return: 11.3%</title></circle>
<text x="303.05" y="231.65" class="round-label">0003</text>
<circle cx="368.23" cy="320.30" r="5.5" class="point"><title>round 0004
round: 4
annualized_return: 10.9%</title></circle>
<text x="376.23" y="312.30" class="round-label">0004</text>
<circle cx="441.41" cy="403.54" r="5.5" class="point"><title>round 0005
round: 5
annualized_return: 10.6%</title></circle>
<text x="449.41" y="395.54" class="round-label">0005</text>
<circle cx="514.59" cy="355.26" r="5.5" class="point"><title>round 0006
round: 6
annualized_return: 10.8%</title></circle>
<text x="522.59" y="347.26" class="round-label">0006</text>
<circle cx="587.77" cy="340.06" r="5.5" class="point"><title>round 0007
round: 7
annualized_return: 10.8%</title></circle>
<text x="595.77" y="332.06" class="round-label">0007</text>
<circle cx="660.95" cy="452.95" r="5.5" class="point"><title>round 0008
round: 8
annualized_return: 10.4%</title></circle>
<text x="668.95" y="444.95" class="round-label">0008</text>
<circle cx="734.13" cy="489.33" r="5.5" class="point"><title>round 0009
round: 9
annualized_return: 10.2%</title></circle>
<text x="742.13" y="481.33" class="round-label">0009</text>
<circle cx="807.31" cy="441.22" r="5.5" class="point"><title>round 0010
round: 10
annualized_return: 10.4%</title></circle>
<text x="815.31" y="433.22" class="round-label">0010</text>
</svg>
